{"glyphs":{" ":{"ha":260,"x_min":0,"x_max":0,"o":""},"A":{"ha":840,"x_min":19,"x_max":822,"o":"m 19 35 q 19 43 19 41 l 249 1168 q 271 1201 252 1188 q 311 1214 289 1214 l 530 1214 q 572 1201 553 1214 q 594 1168 590 1188 l 822 43 q 822 35 822 41 q 810 9 822 19 q 778 -2 798 -2 l 631 -2 q 585 36 591 -2 l 533 319 l 309 319 l 257 36 q 243 7 253 16 q 212 -2 234 -2 l 65 -2 q 32 9 45 -2 q 19 35 19 19 m 504 523 l 429 958 q 426 965 428 963 q 420 967 424 967 q 415 965 417 967 q 412 958 413 963 l 339 523 l 504 523 z "},"B":{"ha":833,"x_min":87,"x_max":773,"o":"m 87 56 l 87 1141 q 97 1178 87 1161 q 126 1205 108 1195 q 165 1215 143 1215 l 519 1215 q 624 1188 575 1215 q 703 1109 673 1160 q 733 988 733 1056 l 734 856 q 723 769 734 815 q 684 686 712 724 q 606 634 655 647 q 726 555 684 619 q 771 385 767 491 l 773 267 q 753 149 773 199 q 700 68 733 99 q 628 23 667 37 q 542 2 574 2 l 142 2 q 115 9 128 2 q 94 29 102 16 q 87 56 87 41 m 451 161 q 531 205 505 170 q 556 300 557 239 l 557 389 q 543 473 558 442 q 498 518 527 505 q 425 531 469 531 l 321 531 q 302 522 308 531 q 295 498 295 512 l 297 184 q 304 167 297 172 q 325 161 310 161 l 451 161 m 427 719 q 474 735 452 719 q 507 780 495 751 q 519 847 520 809 l 517 931 q 490 1024 517 993 q 410 1056 463 1056 l 314 1056 q 296 1046 304 1056 q 288 1024 288 1036 l 292 733 q 313 717 292 717 l 427 719 z "},"C":{"ha":845,"x_min":87,"x_max":785,"o":"m 130 158 q 87 328 87 235 l 87 903 q 106 1017 87 962 q 161 1115 125 1071 q 247 1189 197 1160 q 406 1233 318 1233 l 462 1233 q 573 1213 520 1233 q 670 1156 627 1193 q 741 1069 713 1120 q 783 903 783 994 l 783 901 q 777 875 784 888 q 759 855 770 863 q 734 847 747 847 l 616 847 q 591 855 603 847 q 572 875 579 863 q 564 901 564 888 l 564 906 q 547 975 564 945 q 500 1023 530 1006 q 432 1040 470 1040 l 425 1040 q 359 1022 390 1040 q 309 973 328 1004 q 292 905 291 942 l 292 337 q 310 267 292 300 q 360 214 329 234 q 425 194 391 194 l 432 194 q 499 214 469 194 q 547 266 530 233 q 564 337 564 298 q 571 363 564 351 q 590 382 578 375 q 616 389 602 389 l 734 389 q 760 382 748 389 q 778 363 771 375 q 785 337 785 351 l 785 328 q 766 211 785 267 q 711 110 747 156 q 627 35 675 65 q 464 -12 551 -12 l 408 -12 q 297 9 350 -12 q 201 68 243 29 q 130 158 158 106 z "},"D":{"ha":873,"x_min":87,"x_max":811,"o":"m 87 47 l 87 1156 q 94 1184 87 1171 q 113 1204 101 1197 q 139 1212 125 1212 l 488 1212 q 599 1193 546 1212 q 696 1138 653 1174 q 767 1054 739 1102 q 809 891 809 978 l 811 335 q 792 221 811 276 q 739 120 773 166 q 656 43 704 74 q 497 -3 583 -3 l 302 -3 q 299 -5 301 -5 q 295 -5 298 -5 l 134 -5 q 110 2 121 -5 q 93 20 99 9 q 87 47 87 32 m 444 205 q 516 225 483 205 q 570 279 550 245 q 590 351 590 313 l 590 880 q 573 945 590 915 q 525 993 555 975 q 460 1010 495 1010 l 314 1010 q 296 1003 304 1010 q 288 986 288 995 l 288 219 q 292 209 288 212 q 302 205 295 205 l 444 205 z "},"E":{"ha":753,"x_min":89,"x_max":694,"o":"m 89 50 l 89 1172 q 102 1204 89 1192 q 135 1217 115 1217 l 648 1217 q 681 1204 667 1217 q 694 1172 694 1191 l 694 1052 q 688 1028 694 1039 q 671 1011 682 1018 q 648 1005 660 1005 l 297 1005 l 297 740 l 563 740 q 594 728 582 740 q 606 696 606 716 l 606 575 q 594 543 606 555 q 563 531 582 531 l 297 531 l 297 215 l 648 215 q 681 202 667 215 q 694 170 694 190 l 694 50 q 688 27 694 38 q 671 10 682 16 q 648 3 660 3 l 135 3 q 102 17 115 3 q 89 50 89 31 z "},"F":{"ha":726,"x_min":87,"x_max":700,"o":"m 87 49 l 87 1168 q 93 1189 87 1180 q 111 1204 100 1199 q 135 1210 122 1210 l 649 1210 q 675 1204 664 1210 q 693 1189 687 1199 q 700 1168 700 1180 l 700 1045 q 693 1023 700 1034 q 674 1006 686 1013 q 649 1000 663 1000 l 297 1000 l 297 734 l 566 734 q 599 723 587 734 q 611 691 611 711 l 611 569 q 599 541 611 552 q 566 530 586 530 l 297 530 l 297 49 q 291 27 297 38 q 274 11 284 17 q 250 5 263 5 l 135 5 q 101 17 114 5 q 87 49 87 29 z "},"G":{"ha":868,"x_min":80,"x_max":800,"o":"m 125 155 q 80 326 80 234 l 80 903 q 100 1019 80 964 q 157 1118 119 1074 q 245 1191 194 1161 q 411 1234 319 1234 l 467 1234 q 575 1220 522 1235 q 672 1174 627 1205 q 748 1099 717 1143 q 799 934 796 1030 q 790 913 799 922 q 767 905 781 905 l 620 905 q 592 912 603 905 q 580 934 581 920 q 555 1000 574 976 q 507 1031 536 1023 q 438 1040 478 1040 l 431 1040 q 361 1022 393 1040 q 310 974 329 1005 q 292 906 292 944 l 292 335 q 311 265 292 298 q 363 212 330 232 q 432 193 395 193 l 438 193 q 505 212 474 193 q 553 265 535 232 q 571 335 571 297 l 571 417 l 481 417 q 456 428 467 417 q 444 453 444 439 l 444 582 q 451 603 444 593 q 467 619 457 613 q 488 625 477 625 l 759 625 q 779 619 770 625 q 795 603 789 613 q 800 582 800 593 l 800 328 q 780 210 800 266 q 723 107 760 153 q 635 30 686 61 q 469 -17 560 -17 l 413 -17 q 299 3 354 -17 q 200 63 245 24 q 125 155 155 102 z "},"H":{"ha":918,"x_min":87,"x_max":858,"o":"m 87 47 l 87 1168 q 93 1190 87 1180 q 110 1207 100 1200 q 132 1214 121 1214 l 260 1214 q 294 1201 280 1214 q 307 1168 307 1188 l 307 740 l 635 741 l 635 1168 q 642 1190 635 1180 q 660 1207 649 1200 q 684 1214 672 1214 l 809 1214 q 833 1207 822 1214 q 851 1190 844 1200 q 858 1168 858 1180 l 858 47 q 851 23 858 34 q 833 6 844 13 q 809 0 822 0 l 684 0 q 660 6 671 0 q 642 23 649 13 q 635 47 635 34 l 635 530 l 307 528 l 307 47 q 301 23 307 34 q 284 6 295 13 q 260 0 273 0 l 132 0 q 110 6 121 0 q 93 24 100 13 q 87 47 87 34 z "},"I":{"ha":443,"x_min":113,"x_max":330,"o":"m 113 43 l 113 1167 q 126 1200 113 1186 q 158 1214 139 1214 l 286 1214 q 308 1207 298 1214 q 324 1190 318 1201 q 330 1167 330 1180 l 330 43 q 324 20 330 31 q 308 3 318 9 q 286 -3 298 -3 l 158 -3 q 126 10 139 -3 q 113 43 113 24 z "},"J":{"ha":771,"x_min":43,"x_max":684,"o":"m 248 -3 q 210 14 226 5 q 178 34 194 22 q 125 75 161 46 q 43 264 43 153 l 43 267 q 51 289 43 278 q 70 307 58 300 q 95 314 82 314 l 207 314 q 240 301 227 314 q 253 267 253 287 l 253 260 q 261 224 253 241 q 286 189 269 206 q 324 171 303 177 q 366 165 344 165 l 372 165 q 430 173 404 165 q 470 196 455 181 q 484 233 484 211 l 483 484 l 483 1179 q 489 1199 483 1190 q 507 1215 495 1209 q 531 1220 518 1220 l 639 1220 q 660 1215 650 1220 q 677 1199 671 1209 q 684 1179 684 1190 l 684 264 q 620 64 684 123 q 521 2 578 26 q 410 -23 464 -23 q 312 -19 344 -23 q 248 -3 280 -16 z "},"K":{"ha":856,"x_min":87,"x_max":839,"o":"m 87 38 l 87 1167 q 93 1189 87 1178 q 109 1205 99 1199 q 132 1212 119 1212 l 259 1212 q 279 1205 270 1212 q 295 1188 289 1199 q 300 1167 300 1178 l 300 847 l 516 1179 q 541 1203 526 1192 q 569 1212 556 1213 l 698 1214 q 727 1205 714 1213 q 748 1185 740 1197 q 755 1160 755 1173 q 748 1135 755 1142 l 444 670 l 830 82 q 839 50 839 61 q 832 23 839 35 q 813 3 825 10 q 785 -3 801 -4 l 639 -3 q 612 5 624 -3 q 590 30 599 13 l 300 484 l 300 38 q 295 18 300 28 q 279 3 289 9 q 259 -3 270 -3 l 132 -3 q 109 2 119 -3 q 93 18 99 8 q 87 38 87 28 z "},"L":{"ha":602,"x_min":80,"x_max":597,"o":"m 80 42 l 80 1177 q 86 1200 80 1190 q 102 1216 92 1210 q 123 1222 112 1222 l 252 1222 q 273 1216 263 1222 q 289 1200 283 1210 q 295 1177 295 1190 l 295 214 l 556 214 q 586 202 575 214 q 597 172 597 191 l 597 42 q 586 12 597 24 q 556 0 575 0 l 122 0 q 101 6 110 0 q 86 21 91 11 q 80 42 80 31 z "},"M":{"ha":1059,"x_min":83,"x_max":995,"o":"m 83 47 l 83 1172 q 90 1195 83 1184 q 107 1211 96 1205 q 128 1217 117 1217 l 326 1217 q 351 1212 339 1217 q 372 1200 364 1208 q 380 1182 380 1192 l 538 672 l 696 1182 q 716 1207 700 1197 q 752 1217 732 1217 l 950 1217 q 982 1204 969 1217 q 995 1172 995 1191 l 995 47 q 982 15 995 27 q 950 2 969 2 l 825 2 q 793 14 805 2 q 781 47 781 27 l 781 767 l 649 344 q 643 334 648 339 q 630 321 639 328 l 622 316 q 594 309 605 309 l 483 309 q 455 316 471 309 l 446 321 q 429 344 434 331 l 297 767 l 297 47 q 291 25 297 36 q 275 8 285 15 q 253 2 265 2 l 128 2 q 107 8 117 2 q 90 25 97 15 q 83 47 83 36 z "},"N":{"ha":924,"x_min":87,"x_max":863,"o":"m 87 49 l 87 1172 q 93 1195 87 1185 q 111 1213 100 1206 q 135 1219 123 1219 l 342 1219 q 369 1213 356 1219 q 393 1197 383 1207 q 406 1175 403 1186 l 658 422 l 641 1172 q 653 1205 641 1192 q 686 1219 666 1219 l 818 1219 q 839 1213 828 1219 q 856 1199 849 1207 q 863 1184 863 1191 l 863 61 q 850 18 863 34 q 818 2 838 2 l 639 2 q 601 15 620 2 q 576 45 583 28 l 295 814 l 311 49 q 298 15 311 29 q 264 2 284 2 l 135 2 q 111 8 123 2 q 93 25 100 14 q 87 49 87 36 z "},"O":{"ha":863,"x_min":76,"x_max":800,"o":"m 122 158 q 76 328 76 238 l 76 899 q 97 1015 76 960 q 154 1115 117 1071 q 243 1189 192 1160 q 410 1233 317 1233 l 467 1233 q 581 1213 526 1233 q 681 1156 636 1193 q 755 1069 726 1119 q 799 901 799 995 l 800 328 q 780 213 800 269 q 722 112 760 158 q 634 35 685 66 q 469 -12 558 -12 l 411 -12 q 297 9 352 -12 q 197 68 242 29 q 122 158 152 106 m 439 193 q 507 212 476 193 q 556 265 538 232 q 575 335 575 298 l 575 903 q 556 971 575 940 q 507 1019 538 1001 q 438 1036 475 1036 l 432 1036 q 363 1019 394 1036 q 312 971 331 1001 q 293 903 293 940 l 293 335 q 312 265 293 298 q 363 212 331 232 q 432 193 395 193 l 439 193 z "},"P":{"ha":806,"x_min":87,"x_max":753,"o":"m 87 45 l 87 1168 q 101 1203 87 1190 q 139 1217 115 1217 l 483 1217 q 588 1203 544 1217 q 659 1167 631 1190 q 707 1113 686 1144 q 741 1030 728 1079 q 753 918 753 980 l 753 764 q 737 680 753 720 q 690 607 720 639 q 618 554 659 575 q 483 521 557 521 l 358 521 q 326 523 335 521 l 326 45 q 311 14 326 26 q 274 2 296 2 l 139 2 q 101 14 115 2 q 87 45 87 25 m 450 708 q 500 722 477 708 q 535 759 522 735 q 549 809 549 782 l 549 948 q 536 999 549 976 q 500 1034 523 1021 q 450 1047 478 1047 l 344 1047 q 324 1040 333 1047 q 316 1023 316 1033 l 316 741 q 320 726 316 734 q 332 713 325 718 q 347 708 340 708 l 450 708 z "},"Q":{"ha":889,"x_min":69,"x_max":819,"o":"m 689 -224 l 262 28 l 208 61 l 196 69 q 103 186 136 117 q 69 337 69 256 l 69 908 q 90 1022 69 967 q 147 1121 110 1076 q 234 1194 184 1165 q 313 1227 272 1216 q 399 1238 353 1238 l 457 1238 q 570 1218 516 1238 q 669 1162 624 1198 q 743 1075 713 1125 q 788 908 788 998 l 788 337 q 769 220 789 276 q 711 118 748 164 q 623 42 673 72 l 788 -57 q 811 -77 802 -64 q 819 -106 819 -91 q 818 -114 819 -108 q 816 -122 817 -119 l 757 -219 q 724 -234 749 -234 q 689 -224 708 -234 m 425 203 q 494 223 463 203 q 543 275 525 242 q 561 345 561 308 l 559 911 q 541 979 559 948 q 492 1027 523 1009 q 424 1045 461 1045 l 418 1045 q 348 1027 381 1044 q 297 978 316 1009 q 278 911 278 948 l 281 345 q 300 275 281 308 q 351 223 319 242 q 420 203 383 203 l 425 203 z "},"R":{"ha":852,"x_min":90,"x_max":795,"o":"m 90 40 l 90 1163 q 97 1187 90 1176 q 114 1205 103 1199 q 139 1212 125 1212 l 479 1212 q 619 1180 558 1211 q 713 1093 680 1148 q 747 969 747 1039 l 747 757 q 730 676 747 715 q 685 605 714 637 q 618 552 656 573 l 620 549 l 793 38 q 795 26 795 36 q 786 8 795 15 q 762 0 776 0 l 611 0 q 589 6 600 0 q 568 20 577 11 q 556 38 559 29 l 415 472 q 372 484 393 484 q 325 464 343 484 l 325 40 q 311 11 325 23 q 278 0 297 0 l 139 0 q 104 11 118 0 q 90 40 90 23 m 427 694 q 476 707 453 694 q 511 741 498 719 q 524 786 524 762 l 524 944 q 511 993 524 971 q 476 1027 498 1015 q 427 1040 453 1040 l 332 1040 q 316 1032 323 1040 q 309 1016 309 1025 l 309 724 q 318 703 309 712 q 339 694 327 694 l 427 694 z "},"S":{"ha":811,"x_min":43,"x_max":740,"o":"m 135 80 q 68 189 92 127 q 43 316 43 250 l 43 318 q 51 347 43 334 q 72 369 59 361 q 99 377 84 377 l 222 377 q 225 375 223 376 q 229 375 227 375 l 233 375 q 259 354 248 368 q 269 325 269 340 l 269 307 q 280 257 269 281 q 310 216 291 233 q 354 193 329 200 q 391 188 372 188 l 396 188 q 406 188 402 188 q 411 189 410 188 l 413 189 q 471 208 445 192 q 511 250 497 224 q 526 307 526 276 l 530 394 q 510 470 528 440 q 457 517 492 500 q 328 543 415 541 l 295 547 q 143 605 195 554 q 75 722 91 655 q 59 870 59 789 l 61 931 l 63 955 q 81 1061 61 1011 q 141 1148 101 1110 q 239 1210 182 1189 q 365 1229 297 1231 l 418 1229 q 535 1206 479 1229 q 634 1139 590 1182 q 699 1038 676 1096 q 722 915 722 979 l 722 913 q 715 887 722 899 q 697 868 709 875 q 672 861 686 861 l 552 861 q 520 876 533 863 q 507 910 507 890 l 507 922 q 496 969 507 947 q 466 1007 485 991 q 422 1031 447 1024 q 387 1036 406 1036 l 373 1036 q 365 1035 372 1035 q 308 1016 333 1031 q 270 976 284 1001 q 257 922 257 952 l 257 821 q 280 767 260 787 q 336 739 299 748 q 434 727 373 730 q 607 681 540 721 q 707 568 675 641 q 740 387 740 495 q 735 300 740 342 q 716 212 731 258 q 674 125 702 166 q 559 20 628 58 q 413 -17 491 -17 l 359 -17 q 239 8 296 -17 q 135 80 181 33 z "},"T":{"ha":649,"x_min":21,"x_max":628,"o":"m 212 47 l 212 1017 l 71 1017 q 35 1029 49 1017 q 21 1059 21 1040 l 21 1175 q 35 1206 21 1194 q 71 1217 49 1217 l 578 1217 q 603 1211 592 1217 q 622 1196 615 1206 q 628 1175 628 1186 l 628 1059 q 622 1038 628 1048 q 603 1023 615 1029 q 578 1017 592 1017 l 431 1017 l 431 47 q 418 14 431 27 q 385 0 405 0 l 257 0 q 235 6 246 0 q 218 24 225 13 q 212 47 212 34 z "},"U":{"ha":898,"x_min":87,"x_max":837,"o":"m 135 167 q 89 337 89 245 l 87 1137 q 96 1185 87 1168 q 121 1209 105 1202 q 165 1215 138 1215 l 227 1215 q 263 1215 254 1215 q 277 1212 272 1214 q 290 1203 282 1210 q 303 1181 299 1197 q 307 1139 307 1165 l 309 347 q 328 276 309 309 q 378 224 346 243 q 446 205 409 205 l 474 205 q 543 224 511 205 q 593 276 574 243 q 611 347 611 309 l 613 1139 q 622 1186 613 1169 q 647 1209 630 1202 q 689 1215 663 1215 l 757 1215 q 804 1209 787 1215 q 829 1186 821 1202 q 837 1137 837 1169 l 835 337 q 814 220 835 276 q 754 119 793 165 q 663 43 715 74 q 493 -3 585 -3 l 431 -3 q 313 17 369 -3 q 211 76 257 38 q 135 167 166 115 z "},"V":{"ha":837,"x_min":17,"x_max":820,"o":"m 245 45 l 17 1170 q 17 1178 17 1173 q 29 1205 17 1195 q 61 1215 41 1215 l 208 1215 q 237 1201 226 1215 q 252 1156 248 1186 l 403 290 q 410 280 404 285 q 422 276 416 276 q 434 290 431 276 l 582 1177 q 595 1206 586 1198 q 627 1215 605 1215 l 774 1215 q 807 1205 794 1215 q 820 1178 820 1194 q 819 1170 820 1173 l 590 45 q 568 13 586 26 q 528 0 550 0 l 309 0 q 281 6 294 0 q 257 22 267 12 q 245 45 247 32 z "},"W":{"ha":1205,"x_min":34,"x_max":1171,"o":"m 240 43 l 35 1172 q 34 1179 34 1174 q 46 1205 34 1194 q 75 1215 57 1215 l 200 1215 q 234 1202 219 1215 q 253 1172 249 1189 l 368 476 q 371 470 369 472 q 377 469 373 469 q 382 470 381 469 q 385 476 384 472 l 479 1168 q 490 1192 482 1181 q 510 1209 499 1203 q 533 1215 522 1215 l 670 1215 q 693 1209 681 1215 q 713 1193 704 1203 q 724 1172 722 1183 l 840 462 q 847 456 841 456 q 851 457 849 456 q 854 462 853 459 l 950 1168 q 969 1202 953 1188 q 1003 1215 984 1215 l 1128 1215 q 1149 1210 1139 1215 q 1165 1196 1159 1204 q 1170 1181 1171 1188 l 991 57 q 972 16 988 31 q 936 0 957 0 l 762 0 q 728 13 743 0 q 708 43 713 26 l 608 601 l 523 57 q 502 16 517 31 q 465 0 486 0 l 293 0 q 268 6 281 0 q 248 22 256 12 q 240 43 240 32 z "},"X":{"ha":799,"x_min":35,"x_max":764,"o":"m 35 68 q 40 95 35 83 l 269 632 l 63 1116 q 56 1146 56 1128 q 66 1182 56 1166 q 94 1209 76 1199 q 134 1219 113 1219 l 226 1219 q 269 1206 248 1219 q 295 1174 289 1193 l 394 913 l 507 1174 q 535 1206 516 1194 q 575 1219 553 1219 l 667 1219 q 706 1209 688 1219 q 734 1182 724 1199 q 745 1146 745 1166 q 738 1116 745 1128 l 526 632 l 757 95 q 764 66 764 84 q 753 30 764 46 q 725 4 743 14 q 686 -5 707 -5 l 594 -5 q 552 7 572 -5 q 524 40 533 19 l 396 351 l 269 40 q 242 7 260 19 q 200 -5 224 -5 l 111 -5 q 73 5 91 -5 q 45 31 56 15 q 35 68 35 48 z "},"Y":{"ha":747,"x_min":30,"x_max":726,"o":"m 260 40 l 260 535 q 236 618 256 574 l 35 1144 q 30 1167 30 1155 q 37 1193 30 1181 q 59 1212 45 1205 q 89 1219 73 1219 l 196 1219 q 255 1182 234 1219 l 372 837 q 380 833 375 833 q 385 837 382 833 l 505 1182 q 525 1208 510 1198 q 557 1219 540 1219 l 667 1219 q 697 1211 683 1219 q 718 1191 710 1204 q 726 1165 726 1179 q 724 1154 726 1161 q 722 1144 723 1147 l 517 618 q 497 535 502 576 l 497 40 q 489 16 497 27 q 468 -1 481 6 q 441 -7 456 -7 l 314 -7 q 288 -1 300 -7 q 268 16 276 6 q 260 40 260 27 z "},"Z":{"ha":819,"x_min":52,"x_max":767,"o":"m 52 61 q 52 73 52 69 l 52 75 l 436 988 l 438 993 q 424 1005 438 1005 l 132 1005 q 107 1013 118 1005 q 88 1032 95 1020 q 82 1057 82 1044 l 82 1167 q 88 1191 81 1180 q 106 1209 94 1202 q 132 1215 118 1215 l 719 1215 q 747 1195 737 1210 q 757 1156 757 1180 q 756 1147 757 1152 q 755 1137 755 1142 l 377 234 l 375 229 q 379 220 375 224 q 389 215 384 215 l 719 215 q 766 163 763 215 l 767 61 q 761 35 767 48 q 743 14 754 22 q 719 5 731 5 l 82 5 q 58 28 64 16 q 52 61 52 40 z "},"a":{"ha":840,"x_min":18,"x_max":822,"o":"m 18 35 q 19 43 18 41 l 248 1168 q 270 1201 252 1188 q 311 1214 289 1214 l 530 1214 q 558 1208 544 1214 q 582 1191 572 1202 q 594 1168 591 1181 l 821 43 q 822 35 822 41 q 810 9 822 19 q 778 -2 798 -2 l 630 -2 q 585 36 590 -2 l 533 319 l 309 319 l 257 36 q 243 7 253 16 q 212 -2 233 -2 l 64 -2 q 31 9 44 -2 q 18 35 18 19 m 503 523 l 429 958 q 426 965 427 963 q 420 967 424 967 q 415 965 417 967 q 411 958 413 963 l 339 523 l 503 523 z "},"b":{"ha":833,"x_min":87,"x_max":773,"o":"m 87 56 l 87 1141 q 97 1178 87 1161 q 126 1205 108 1195 q 165 1215 143 1215 l 519 1215 q 628 1186 584 1211 q 703 1109 672 1161 q 733 988 733 1056 l 734 856 q 723 769 734 815 q 684 686 712 724 q 606 634 655 647 q 726 555 684 619 q 771 385 767 491 l 773 267 q 753 149 773 199 q 700 68 733 99 q 628 23 667 37 q 542 2 574 2 l 142 2 q 115 9 128 2 q 94 29 102 16 q 87 56 87 41 m 451 161 q 531 205 505 170 q 556 300 557 239 l 557 389 q 543 473 558 442 q 498 518 527 505 q 425 531 469 531 l 321 531 q 302 522 308 531 q 295 498 295 512 l 297 184 q 304 167 297 172 q 325 161 310 161 l 451 161 m 427 719 q 474 735 452 719 q 507 780 495 751 q 519 847 520 809 l 517 931 q 490 1024 517 993 q 410 1056 463 1056 l 314 1056 q 296 1046 304 1056 q 288 1024 288 1036 l 292 733 q 313 717 292 717 l 427 719 z "},"c":{"ha":840,"x_min":87,"x_max":785,"o":"m 130 158 q 87 328 87 235 l 87 903 q 106 1017 87 962 q 161 1115 125 1071 q 247 1189 197 1160 q 406 1233 318 1233 l 462 1233 q 573 1213 520 1233 q 670 1156 627 1193 q 741 1069 713 1120 q 783 903 783 994 l 783 901 q 777 875 784 888 q 759 855 770 863 q 734 847 747 847 l 616 847 q 591 855 603 847 q 572 875 579 863 q 564 901 564 888 l 564 906 q 547 975 564 945 q 500 1023 530 1006 q 432 1040 470 1040 l 425 1040 q 359 1022 390 1040 q 309 973 328 1004 q 292 905 291 942 l 292 337 q 310 267 292 300 q 360 214 329 234 q 425 194 391 194 l 432 194 q 499 214 469 194 q 547 266 530 233 q 564 337 564 298 q 571 363 564 351 q 590 382 578 375 q 616 389 602 389 l 734 389 q 760 382 748 389 q 778 363 771 375 q 785 337 785 351 l 785 328 q 766 211 785 267 q 711 110 747 156 q 627 35 675 65 q 464 -12 551 -12 l 408 -12 q 297 9 350 -12 q 201 68 243 29 q 130 158 158 106 z "},"d":{"ha":872,"x_min":85,"x_max":809,"o":"m 85 47 l 85 1156 q 92 1184 85 1171 q 112 1204 100 1197 q 137 1212 124 1212 l 486 1212 q 598 1193 544 1212 q 694 1138 651 1174 q 766 1054 737 1102 q 807 891 807 978 l 809 335 q 790 221 809 276 q 737 120 772 166 q 655 43 702 74 q 495 -3 582 -3 l 300 -3 q 298 -5 299 -5 q 293 -5 296 -5 l 132 -5 q 108 2 119 -5 q 91 20 98 9 q 85 47 85 32 m 443 205 q 515 225 481 205 q 568 279 548 245 q 589 351 589 313 l 589 880 q 571 945 589 915 q 523 993 553 975 q 458 1010 493 1010 l 313 1010 q 294 1003 302 1010 q 286 986 286 995 l 286 219 q 290 209 286 212 q 300 205 294 205 l 443 205 z "},"e":{"ha":753,"x_min":89,"x_max":694,"o":"m 89 50 l 89 1172 q 102 1204 89 1192 q 135 1217 115 1217 l 648 1217 q 681 1204 667 1217 q 694 1172 694 1191 l 694 1052 q 688 1028 694 1039 q 671 1011 682 1018 q 648 1005 660 1005 l 297 1005 l 297 740 l 563 740 q 594 728 582 740 q 606 696 606 716 l 606 575 q 594 543 606 555 q 563 531 582 531 l 297 531 l 297 215 l 648 215 q 681 202 667 215 q 694 170 694 190 l 694 50 q 688 27 694 38 q 671 10 682 16 q 648 3 660 3 l 135 3 q 102 17 115 3 q 89 50 89 31 z "},"f":{"ha":733,"x_min":87,"x_max":684,"o":"m 87 49 l 87 1168 q 100 1198 87 1186 q 134 1210 113 1210 l 635 1210 q 660 1204 649 1210 q 678 1189 671 1199 q 684 1168 684 1180 l 684 1045 q 678 1023 684 1034 q 660 1006 671 1013 q 635 1000 649 1000 l 292 1000 l 292 734 l 554 734 q 585 722 573 734 q 597 691 597 710 l 597 569 q 585 541 597 552 q 554 530 573 530 l 292 530 l 292 49 q 285 27 292 38 q 268 11 279 17 q 245 5 258 5 l 134 5 q 100 17 113 5 q 87 49 87 29 z "},"g":{"ha":868,"x_min":80,"x_max":800,"o":"m 125 155 q 80 326 80 234 l 80 903 q 100 1019 80 964 q 157 1118 119 1074 q 245 1191 194 1161 q 411 1234 319 1234 l 467 1234 q 575 1220 522 1235 q 672 1174 627 1205 q 748 1099 717 1143 q 799 934 796 1030 q 790 913 799 922 q 767 905 781 905 l 620 905 q 592 912 603 905 q 580 934 581 920 q 555 1000 574 976 q 507 1031 536 1023 q 438 1040 478 1040 l 431 1040 q 361 1022 393 1040 q 310 974 329 1005 q 292 906 292 944 l 292 335 q 311 265 292 298 q 363 212 330 232 q 432 193 395 193 l 438 193 q 505 212 474 193 q 553 265 535 232 q 571 335 571 297 l 571 417 l 481 417 q 456 428 467 417 q 444 453 444 439 l 444 582 q 451 603 444 593 q 467 619 457 613 q 488 625 477 625 l 759 625 q 779 619 770 625 q 795 603 789 613 q 800 582 800 593 l 800 328 q 780 210 800 266 q 723 107 760 153 q 635 30 686 61 q 469 -17 560 -17 l 413 -17 q 299 3 354 -17 q 200 63 245 24 q 125 155 155 102 z "},"h":{"ha":918,"x_min":87,"x_max":858,"o":"m 87 47 l 87 1168 q 93 1190 87 1180 q 110 1207 100 1200 q 132 1214 121 1214 l 260 1214 q 294 1201 280 1214 q 307 1168 307 1188 l 307 740 l 635 741 l 635 1168 q 642 1190 635 1180 q 660 1207 649 1200 q 684 1214 672 1214 l 809 1214 q 833 1207 822 1214 q 851 1190 844 1200 q 858 1168 858 1180 l 858 47 q 851 23 858 34 q 833 6 844 13 q 809 0 822 0 l 684 0 q 660 6 671 0 q 642 23 649 13 q 635 47 635 34 l 635 530 l 307 528 l 307 47 q 301 23 307 34 q 284 6 295 13 q 260 0 273 0 l 132 0 q 110 6 121 0 q 93 24 100 13 q 87 47 87 34 z "},"i":{"ha":443,"x_min":113,"x_max":330,"o":"m 113 43 l 113 1167 q 126 1200 113 1186 q 158 1214 139 1214 l 286 1214 q 308 1207 298 1214 q 324 1190 318 1201 q 330 1167 330 1180 l 330 43 q 324 20 330 31 q 308 3 318 9 q 286 -3 298 -3 l 158 -3 q 126 10 139 -3 q 113 43 113 24 z "},"j":{"ha":771,"x_min":43,"x_max":684,"o":"m 248 -3 q 210 14 226 5 q 178 34 194 22 q 125 75 161 46 q 43 264 43 153 l 43 267 q 51 289 43 278 q 70 307 58 300 q 95 314 82 314 l 207 314 q 240 301 227 314 q 253 267 253 287 l 253 260 q 261 224 253 241 q 286 189 269 206 q 324 171 303 177 q 366 165 344 165 l 372 165 q 430 173 404 165 q 470 196 455 181 q 484 233 484 211 l 483 484 l 483 1179 q 489 1199 483 1190 q 507 1215 495 1209 q 531 1220 518 1220 l 639 1220 q 660 1215 650 1220 q 677 1199 671 1209 q 684 1179 684 1190 l 684 264 q 620 64 684 123 q 521 2 578 26 q 410 -23 464 -23 q 312 -19 344 -23 q 248 -3 280 -16 z "},"k":{"ha":856,"x_min":87,"x_max":839,"o":"m 87 38 l 87 1167 q 93 1189 87 1178 q 109 1205 99 1199 q 132 1212 119 1212 l 259 1212 q 279 1205 270 1212 q 295 1188 289 1199 q 300 1167 300 1178 l 300 847 l 516 1179 q 541 1203 526 1192 q 569 1212 556 1213 l 698 1214 q 727 1205 714 1213 q 748 1185 740 1197 q 755 1160 755 1173 q 748 1135 755 1142 l 444 670 l 830 82 q 839 50 839 61 q 832 23 839 35 q 813 3 825 10 q 785 -3 801 -4 l 639 -3 q 612 5 624 -3 q 590 30 599 13 l 300 484 l 300 38 q 295 18 300 28 q 279 3 289 9 q 259 -3 270 -3 l 132 -3 q 109 2 119 -3 q 93 18 99 8 q 87 38 87 28 z "},"l":{"ha":611,"x_min":80,"x_max":597,"o":"m 80 42 l 80 1177 q 86 1200 80 1190 q 102 1216 92 1210 q 123 1222 112 1222 l 252 1222 q 273 1216 263 1222 q 289 1200 283 1210 q 295 1177 295 1190 l 295 214 l 556 214 q 586 202 575 214 q 597 172 597 191 l 597 42 q 586 12 597 24 q 556 0 575 0 l 122 0 q 101 6 110 0 q 86 21 91 11 q 80 42 80 31 z "},"m":{"ha":1059,"x_min":83,"x_max":995,"o":"m 83 47 l 83 1172 q 90 1195 83 1184 q 107 1211 96 1205 q 128 1217 117 1217 l 326 1217 q 351 1212 339 1217 q 372 1200 364 1208 q 380 1182 380 1192 l 538 672 l 696 1182 q 716 1207 700 1197 q 752 1217 732 1217 l 950 1217 q 982 1204 969 1217 q 995 1172 995 1191 l 995 47 q 982 15 995 27 q 950 2 969 2 l 825 2 q 793 14 805 2 q 781 47 781 27 l 781 767 l 649 344 q 643 334 648 339 q 630 321 639 328 l 622 316 q 594 309 605 309 l 483 309 q 455 316 471 309 l 446 321 q 429 344 434 331 l 297 767 l 297 47 q 291 25 297 36 q 275 8 285 15 q 253 2 265 2 l 128 2 q 107 8 117 2 q 90 25 97 15 q 83 47 83 36 z "},"n":{"ha":924,"x_min":87,"x_max":863,"o":"m 87 49 l 87 1172 q 93 1195 87 1185 q 111 1213 100 1206 q 135 1219 123 1219 l 342 1219 q 369 1213 356 1219 q 393 1197 383 1207 q 406 1175 403 1186 l 658 422 l 641 1172 q 653 1205 641 1192 q 686 1219 666 1219 l 818 1219 q 839 1213 828 1219 q 856 1199 849 1207 q 863 1184 863 1191 l 863 61 q 850 18 863 34 q 818 2 838 2 l 639 2 q 601 15 620 2 q 576 45 583 28 l 295 814 l 311 49 q 298 15 311 29 q 264 2 284 2 l 135 2 q 111 8 123 2 q 93 25 100 14 q 87 49 87 36 z "},"o":{"ha":863,"x_min":76,"x_max":800,"o":"m 122 158 q 76 328 76 238 l 76 899 q 97 1015 76 960 q 154 1115 117 1071 q 243 1189 192 1160 q 410 1233 317 1233 l 467 1233 q 581 1213 526 1233 q 681 1156 636 1193 q 755 1069 726 1119 q 799 901 799 995 l 800 328 q 780 213 800 269 q 722 112 760 158 q 634 35 685 66 q 469 -12 558 -12 l 411 -12 q 297 9 352 -12 q 197 68 242 29 q 122 158 152 106 m 439 193 q 507 212 476 193 q 556 265 538 232 q 575 335 575 298 l 575 903 q 556 971 575 940 q 507 1019 538 1001 q 438 1036 475 1036 l 432 1036 q 363 1019 394 1036 q 312 971 331 1001 q 293 903 293 940 l 293 335 q 312 265 293 298 q 363 212 331 232 q 432 193 395 193 l 439 193 z "},"p":{"ha":806,"x_min":87,"x_max":753,"o":"m 87 45 l 87 1168 q 101 1203 87 1190 q 139 1217 115 1217 l 483 1217 q 588 1203 544 1217 q 659 1167 631 1190 q 707 1113 686 1144 q 741 1030 728 1079 q 753 918 753 980 l 753 764 q 737 680 753 720 q 690 607 720 639 q 618 554 659 575 q 483 521 557 521 l 358 521 q 326 523 335 521 l 326 45 q 311 14 326 26 q 274 2 296 2 l 139 2 q 101 14 115 2 q 87 45 87 25 m 450 708 q 500 722 477 708 q 535 759 522 735 q 549 809 549 782 l 549 948 q 536 999 549 976 q 500 1034 523 1021 q 450 1047 478 1047 l 344 1047 q 324 1040 333 1047 q 316 1023 316 1033 l 316 741 q 320 726 316 734 q 332 713 325 718 q 347 708 340 708 l 450 708 z "},"q":{"ha":889,"x_min":69,"x_max":819,"o":"m 689 -224 l 262 28 l 208 61 l 196 69 q 103 186 136 117 q 69 337 69 256 l 69 908 q 90 1022 69 967 q 147 1121 110 1076 q 234 1194 184 1165 q 313 1227 272 1216 q 399 1238 353 1238 l 457 1238 q 570 1218 516 1238 q 669 1162 624 1198 q 743 1075 713 1125 q 788 908 788 998 l 788 337 q 769 220 789 276 q 711 118 748 164 q 623 42 673 72 l 788 -57 q 811 -77 802 -64 q 819 -106 819 -91 q 818 -114 819 -108 q 816 -122 817 -119 l 757 -219 q 724 -234 749 -234 q 689 -224 708 -234 m 425 203 q 494 223 463 203 q 543 275 525 242 q 561 345 561 308 l 559 911 q 541 979 559 948 q 492 1027 523 1009 q 424 1045 461 1045 l 418 1045 q 348 1027 381 1044 q 297 978 316 1009 q 278 911 278 948 l 281 345 q 300 275 281 308 q 351 223 319 242 q 420 203 383 203 l 425 203 z "},"r":{"ha":852,"x_min":90,"x_max":795,"o":"m 90 40 l 90 1163 q 97 1187 90 1176 q 114 1205 103 1199 q 139 1212 125 1212 l 479 1212 q 619 1180 558 1211 q 713 1093 680 1148 q 747 969 747 1039 l 747 757 q 730 676 747 715 q 685 605 714 637 q 618 552 656 573 l 620 549 l 793 38 q 795 26 795 36 q 786 8 795 15 q 762 0 776 0 l 611 0 q 589 6 600 0 q 568 20 577 11 q 556 38 559 29 l 415 472 q 372 484 393 484 q 325 464 343 484 l 325 40 q 311 11 325 23 q 278 0 297 0 l 139 0 q 104 11 118 0 q 90 40 90 23 m 427 694 q 476 707 453 694 q 511 741 498 719 q 524 786 524 762 l 524 944 q 511 993 524 971 q 476 1027 498 1015 q 427 1040 453 1040 l 332 1040 q 316 1032 323 1040 q 309 1016 309 1025 l 309 724 q 318 703 309 712 q 339 694 327 694 l 427 694 z "},"s":{"ha":792,"x_min":35,"x_max":731,"o":"m 127 80 q 59 189 83 127 q 35 316 35 250 l 35 318 q 42 347 35 334 q 63 369 50 361 q 90 377 76 377 l 214 377 q 216 375 215 376 q 220 375 218 375 l 224 375 q 250 354 240 368 q 260 325 260 340 l 260 307 q 271 257 260 281 q 301 216 282 233 q 345 193 320 200 q 382 188 364 188 l 387 188 q 397 188 393 188 q 403 189 402 188 l 405 189 q 462 208 436 192 q 503 250 488 224 q 517 307 517 276 l 521 394 q 501 470 519 440 q 448 517 483 500 q 319 543 406 541 l 286 547 q 134 605 186 554 q 66 722 82 655 q 50 870 50 789 l 52 931 l 54 955 q 70 1043 63 1013 q 92 1098 78 1074 q 132 1148 106 1123 q 231 1210 173 1189 q 356 1229 288 1231 l 410 1229 q 526 1206 470 1229 q 625 1139 582 1182 q 691 1038 668 1096 q 714 915 714 979 l 714 913 q 707 887 714 899 q 689 868 700 875 q 663 861 677 861 l 543 861 q 511 876 524 863 q 498 910 498 890 l 498 922 q 488 969 498 947 q 457 1007 477 991 q 413 1031 438 1024 q 378 1036 398 1036 l 365 1036 q 356 1035 363 1035 q 300 1016 324 1031 q 262 976 275 1001 q 248 922 248 952 l 248 821 q 271 767 252 787 q 327 739 291 748 q 425 727 364 730 q 655 632 580 717 q 731 387 731 548 q 727 300 731 342 q 708 212 722 258 q 665 125 693 166 q 551 20 619 58 q 405 -17 482 -17 l 351 -17 q 230 8 287 -17 q 127 80 173 33 z "},"t":{"ha":642,"x_min":17,"x_max":625,"o":"m 208 47 l 208 1017 l 68 1017 q 31 1029 45 1017 q 17 1059 17 1040 l 17 1175 q 31 1206 17 1194 q 68 1217 45 1217 l 575 1217 q 600 1211 588 1217 q 618 1196 611 1206 q 625 1175 625 1186 l 625 1059 q 618 1038 625 1048 q 600 1023 611 1029 q 575 1017 588 1017 l 427 1017 l 427 47 q 414 14 427 27 q 382 0 401 0 l 253 0 q 232 6 242 0 q 215 24 221 13 q 208 47 208 34 z "},"u":{"ha":889,"x_min":87,"x_max":837,"o":"m 135 167 q 89 337 89 245 l 87 1137 q 96 1185 87 1168 q 121 1209 105 1202 q 165 1215 138 1215 l 227 1215 q 263 1215 254 1215 q 277 1212 272 1214 q 290 1203 282 1210 q 303 1181 299 1197 q 307 1139 307 1165 l 309 347 q 328 276 309 309 q 378 224 346 243 q 446 205 409 205 l 474 205 q 543 224 511 205 q 593 276 574 243 q 611 347 611 309 l 613 1139 q 622 1186 613 1169 q 647 1209 630 1202 q 689 1215 663 1215 l 757 1215 q 804 1209 787 1215 q 829 1186 821 1202 q 837 1137 837 1169 l 835 337 q 814 220 835 276 q 754 119 793 165 q 663 43 715 74 q 493 -3 585 -3 l 431 -3 q 313 17 369 -3 q 211 76 257 38 q 135 167 166 115 z "},"v":{"ha":837,"x_min":17,"x_max":820,"o":"m 245 45 l 17 1170 q 17 1178 17 1173 q 29 1205 17 1195 q 61 1215 41 1215 l 208 1215 q 237 1201 226 1215 q 252 1156 248 1186 l 403 290 q 410 280 404 285 q 422 276 416 276 q 434 290 431 276 l 582 1177 q 595 1206 586 1198 q 627 1215 605 1215 l 774 1215 q 807 1205 794 1215 q 820 1178 820 1194 q 819 1170 820 1173 l 590 45 q 568 13 586 26 q 528 0 550 0 l 309 0 q 281 6 294 0 q 257 22 267 12 q 245 45 247 32 z "},"w":{"ha":1205,"x_min":34,"x_max":1171,"o":"m 240 43 l 35 1172 q 34 1179 34 1174 q 46 1205 34 1194 q 75 1215 57 1215 l 200 1215 q 234 1202 219 1215 q 253 1172 249 1189 l 368 476 q 371 470 369 472 q 377 469 373 469 q 382 470 381 469 q 385 476 384 472 l 479 1168 q 490 1192 482 1181 q 510 1209 499 1203 q 533 1215 522 1215 l 670 1215 q 693 1209 681 1215 q 713 1193 704 1203 q 724 1172 722 1183 l 840 462 q 847 456 841 456 q 851 457 849 456 q 854 462 853 459 l 950 1168 q 969 1202 953 1188 q 1003 1215 984 1215 l 1128 1215 q 1149 1210 1139 1215 q 1165 1196 1159 1204 q 1170 1181 1171 1188 l 991 57 q 972 16 988 31 q 936 0 957 0 l 762 0 q 728 13 743 0 q 708 43 713 26 l 608 601 l 523 57 q 502 16 517 31 q 465 0 486 0 l 293 0 q 268 6 281 0 q 248 22 256 12 q 240 43 240 32 z "},"x":{"ha":799,"x_min":35,"x_max":764,"o":"m 35 68 q 40 95 35 83 l 269 632 l 63 1116 q 56 1146 56 1128 q 66 1182 56 1166 q 94 1209 76 1199 q 134 1219 113 1219 l 226 1219 q 269 1206 248 1219 q 295 1174 289 1193 l 394 913 l 507 1174 q 535 1206 516 1194 q 575 1219 553 1219 l 667 1219 q 706 1209 688 1219 q 734 1182 724 1199 q 745 1146 745 1166 q 738 1116 745 1128 l 526 632 l 757 95 q 764 66 764 84 q 753 30 764 46 q 725 4 743 14 q 686 -5 707 -5 l 594 -5 q 552 7 572 -5 q 524 40 533 19 l 396 351 l 269 40 q 242 7 260 19 q 200 -5 224 -5 l 111 -5 q 73 5 91 -5 q 45 31 56 15 q 35 68 35 48 z "},"y":{"ha":747,"x_min":30,"x_max":726,"o":"m 260 40 l 260 535 q 236 618 256 574 l 35 1144 q 30 1167 30 1155 q 37 1193 30 1181 q 59 1212 45 1205 q 89 1219 73 1219 l 196 1219 q 255 1182 234 1219 l 372 837 q 380 833 375 833 q 385 837 382 833 l 505 1182 q 525 1208 510 1198 q 557 1219 540 1219 l 667 1219 q 697 1211 683 1219 q 718 1191 710 1204 q 726 1165 726 1179 q 724 1154 726 1161 q 722 1144 723 1147 l 517 618 q 497 535 502 576 l 497 40 q 489 16 497 27 q 468 -1 481 6 q 441 -7 456 -7 l 314 -7 q 288 -1 300 -7 q 268 16 276 6 q 260 40 260 27 z "},"z":{"ha":819,"x_min":52,"x_max":767,"o":"m 52 61 q 52 73 52 69 l 52 75 l 436 988 l 438 993 q 424 1005 438 1005 l 132 1005 q 107 1013 118 1005 q 88 1032 95 1020 q 82 1057 82 1044 l 82 1167 q 88 1191 81 1180 q 106 1209 94 1202 q 132 1215 118 1215 l 719 1215 q 747 1195 737 1210 q 757 1156 757 1180 q 756 1147 757 1152 q 755 1137 755 1142 l 377 234 l 375 229 q 379 220 375 224 q 389 215 384 215 l 719 215 q 766 163 763 215 l 767 61 q 761 35 767 48 q 743 14 754 22 q 719 5 731 5 l 82 5 q 58 28 64 16 q 52 61 52 40 z "},"⁄":{"ha":694,"x_min":47,"x_max":677,"o":"m 47 75 q 54 109 47 93 l 481 1174 q 504 1203 489 1193 q 540 1214 520 1214 l 595 1214 q 638 1203 619 1214 q 667 1176 656 1193 q 677 1137 677 1158 q 670 1102 677 1119 l 243 38 q 220 9 235 19 q 184 -2 204 -2 l 128 -2 q 86 9 105 -2 q 57 36 68 19 q 47 75 47 54 z "},"*":{"ha":675,"x_min":79,"x_max":571,"o":"m 170 720 l 122 776 q 117 793 117 783 q 122 808 117 802 l 441 1170 q 447 1177 443 1174 q 454 1179 450 1179 q 469 1170 463 1179 l 517 1118 q 523 1101 523 1111 q 522 1091 523 1095 q 517 1083 520 1087 l 200 720 q 194 715 197 716 q 185 714 190 714 q 170 720 176 714 m 269 674 l 269 1189 q 276 1205 269 1197 q 289 1212 282 1212 l 360 1212 q 372 1205 366 1212 q 378 1189 378 1197 l 378 674 q 372 659 378 665 q 360 652 366 652 l 289 652 q 275 659 280 652 q 269 674 269 665 m 441 714 l 122 1078 q 117 1093 117 1083 q 122 1109 117 1102 l 170 1164 q 185 1172 179 1172 q 192 1170 188 1172 q 198 1164 195 1168 l 517 801 q 523 784 523 794 q 517 769 523 776 l 469 714 q 454 707 462 707 q 447 708 450 707 q 441 714 444 710 m 79 915 l 79 994 q 84 1009 79 1003 q 97 1015 89 1015 l 550 1015 q 565 1009 558 1015 q 571 994 571 1003 l 571 915 q 565 898 571 905 q 550 892 558 892 l 97 892 q 84 898 89 892 q 79 915 79 905 z "},"\\":{"ha":521,"x_min":34,"x_max":465,"o":"m 238 40 l 35 1188 q 34 1196 34 1190 q 46 1223 34 1213 q 75 1234 57 1234 l 205 1234 q 242 1221 225 1234 q 262 1188 258 1207 l 464 40 q 465 31 465 35 q 453 4 465 15 q 425 -7 442 -7 l 293 -7 q 258 7 274 -7 q 238 40 242 20 z "},"·":{"ha":347,"x_min":28,"x_max":326,"o":"m 28 594 q 48 668 28 634 q 103 723 68 702 q 177 743 137 743 q 252 723 217 743 q 306 668 286 702 q 326 594 326 634 q 306 519 326 553 q 252 465 286 485 q 177 444 217 444 q 103 465 137 444 q 48 519 68 485 q 28 594 28 553 z "},"•":{"ha":590,"x_min":69,"x_max":530,"o":"m 69 608 q 100 723 69 670 q 184 806 131 775 q 299 837 236 837 q 413 806 360 837 q 498 722 466 775 q 530 608 530 670 q 498 493 530 546 q 413 408 466 440 q 299 377 360 377 q 184 408 236 377 q 100 493 131 440 q 69 608 69 546 z "},":":{"ha":347,"x_min":45,"x_max":304,"o":"m 45 675 l 45 807 q 53 839 45 825 q 76 862 62 854 q 108 870 90 870 l 240 870 q 272 862 258 870 q 295 840 287 854 q 304 807 304 825 l 304 675 q 295 643 304 657 q 272 620 287 628 q 240 611 258 611 l 108 611 q 76 620 91 611 q 53 643 62 628 q 45 675 45 657 m 45 64 l 45 196 q 53 228 45 214 q 76 251 62 243 q 108 259 90 259 l 240 259 q 272 251 258 259 q 295 228 287 243 q 304 196 304 214 l 304 64 q 295 32 304 46 q 272 9 287 17 q 240 0 258 0 l 108 0 q 76 9 91 0 q 53 32 62 17 q 45 64 45 46 z "},",":{"ha":356,"x_min":52,"x_max":309,"o":"m 52 -102 q 59 -87 52 -94 l 97 -19 q 99 -16 98 -18 q 99 -12 99 -15 q 97 -3 99 -7 q 90 2 94 0 q 63 24 73 8 q 52 61 52 40 l 52 191 q 60 223 52 209 q 82 245 68 238 q 113 253 97 253 l 247 253 q 278 245 264 253 q 301 222 292 237 q 309 191 309 208 l 309 61 q 292 16 309 35 l 196 -116 q 186 -122 192 -120 q 168 -123 179 -123 l 73 -123 q 58 -117 64 -123 q 52 -102 52 -111 z "},"…":{"ha":903,"x_min":33,"x_max":870,"o":"m 674 0 q 642 9 657 0 q 619 32 628 17 q 611 64 611 46 l 611 196 q 619 228 611 214 q 642 251 628 243 q 674 259 656 259 l 806 259 q 838 251 824 259 q 861 228 853 243 q 870 196 870 214 l 870 64 q 861 32 870 46 q 838 9 853 17 q 806 0 824 0 l 674 0 m 33 61 l 33 193 q 41 225 33 210 q 64 247 50 239 q 95 255 78 255 l 227 255 q 260 247 245 255 q 283 225 275 239 q 292 193 292 211 l 292 61 q 283 28 292 43 q 260 5 275 14 q 227 -3 245 -3 l 95 -3 q 64 5 78 -3 q 41 28 50 14 q 33 61 33 43 m 33 61 l 33 193 q 41 225 33 210 q 64 247 50 239 q 95 255 78 255 l 227 255 q 260 247 245 255 q 283 225 275 239 q 292 193 292 211 l 292 61 q 283 28 292 43 q 260 5 275 14 q 227 -3 245 -3 l 95 -3 q 64 5 78 -3 q 41 28 50 14 q 33 61 33 43 m 33 61 l 33 193 q 41 225 33 210 q 64 247 50 239 q 95 255 78 255 l 227 255 q 260 247 245 255 q 283 225 275 239 q 292 193 292 211 l 292 61 q 283 28 292 43 q 260 5 275 14 q 227 -3 245 -3 l 95 -3 q 64 5 78 -3 q 41 28 50 14 q 33 61 33 43 m 321 64 l 321 196 q 330 228 321 214 q 352 251 338 243 q 384 259 366 259 l 516 259 q 548 251 534 259 q 572 228 563 243 q 580 196 580 214 l 580 64 q 571 32 580 46 q 548 9 563 17 q 516 0 534 0 l 384 0 q 352 9 367 0 q 330 32 338 17 q 321 64 321 46 m 321 64 l 321 196 q 330 228 321 214 q 352 251 338 243 q 384 259 366 259 l 516 259 q 548 251 534 259 q 572 228 563 243 q 580 196 580 214 l 580 64 q 571 32 580 46 q 548 9 563 17 q 516 0 534 0 l 384 0 q 352 9 367 0 q 330 32 338 17 q 321 64 321 46 m 321 64 l 321 196 q 330 228 321 214 q 352 251 338 243 q 384 259 366 259 l 516 259 q 548 251 534 259 q 572 228 563 243 q 580 196 580 214 l 580 64 q 571 32 580 46 q 548 9 563 17 q 516 0 534 0 l 384 0 q 352 9 367 0 q 330 32 338 17 q 321 64 321 46 m 611 64 l 611 196 q 619 228 611 214 q 642 251 628 243 q 674 259 656 259 l 806 259 q 838 251 824 259 q 861 228 853 243 q 870 196 870 214 l 870 64 q 861 32 870 46 q 838 9 853 17 q 806 0 824 0 l 674 0 q 642 9 657 0 q 619 32 628 17 q 611 64 611 46 m 674 0 q 642 9 657 0 q 619 32 628 17 q 611 64 611 46 l 611 196 q 619 228 611 214 q 642 251 628 243 q 674 259 656 259 l 806 259 q 838 251 824 259 q 861 228 853 243 q 870 196 870 214 l 870 64 q 861 32 870 46 q 838 9 853 17 q 806 0 824 0 l 674 0 z "},"!":{"ha":479,"x_min":103,"x_max":375,"o":"m 118 363 l 104 1163 q 117 1208 103 1194 q 163 1220 132 1222 l 314 1220 q 349 1217 337 1220 q 368 1203 362 1214 q 375 1170 375 1193 l 358 361 q 346 335 358 345 q 314 325 334 325 l 163 325 q 131 336 143 325 q 118 363 118 347 m 109 64 l 109 196 q 118 228 109 214 q 140 251 126 243 q 172 259 155 259 l 304 259 q 337 251 322 259 q 360 228 351 243 q 368 196 368 214 l 368 64 q 360 32 368 46 q 336 9 351 17 q 304 0 322 0 l 172 0 q 140 9 155 0 q 118 32 126 17 q 109 64 109 46 z "},"¡":{"ha":479,"x_min":97,"x_max":369,"o":"m 97 45 l 115 854 q 127 880 115 870 q 158 891 139 891 l 309 891 q 342 880 329 891 q 354 852 354 868 l 368 52 q 355 7 369 21 q 309 -5 341 -7 l 158 -5 q 123 -2 135 -5 q 104 12 110 1 q 97 45 97 23 m 104 1019 l 104 1151 q 113 1184 104 1169 q 136 1207 121 1198 q 168 1215 150 1215 l 300 1215 q 332 1207 317 1215 q 355 1184 346 1198 q 363 1151 363 1169 l 363 1019 q 355 987 363 1001 q 332 965 346 973 q 300 957 318 957 l 168 957 q 136 965 150 957 q 113 987 121 973 q 104 1019 104 1001 z "},"#":{"ha":1042,"x_min":0,"x_max":1031,"o":"m 461 37 q 462 47 461 42 l 660 1170 q 679 1203 664 1190 q 714 1217 694 1217 l 842 1217 q 867 1206 857 1217 q 878 1179 878 1195 q 877 1170 878 1175 l 679 47 q 668 23 676 34 q 649 6 660 13 q 627 0 638 0 l 498 0 q 471 11 482 0 q 461 37 461 21 m 0 363 l 0 373 l 23 502 q 39 532 27 519 q 66 545 52 545 l 927 547 q 948 537 939 547 q 957 512 957 526 q 955 503 957 505 l 932 375 q 925 352 932 363 q 909 336 919 342 q 889 330 899 330 l 30 328 q 8 338 15 328 q 0 363 0 347 m 134 42 q 135 52 134 47 l 333 1175 q 352 1209 337 1195 q 387 1222 368 1222 l 516 1222 q 541 1211 531 1222 q 551 1184 551 1201 q 550 1175 551 1180 l 352 52 q 342 28 350 39 q 323 11 334 18 q 300 5 311 5 l 172 5 q 145 16 155 5 q 134 42 134 26 m 75 745 q 75 751 75 748 q 76 755 75 754 l 99 884 q 106 905 100 894 q 123 921 113 915 q 142 927 133 927 l 1002 927 q 1024 918 1016 927 q 1031 892 1031 908 q 1030 884 1031 885 l 1007 755 q 1000 732 1006 743 q 984 716 993 722 q 964 710 974 710 l 104 710 q 83 720 92 710 q 75 745 75 730 z "},".":{"ha":347,"x_min":42,"x_max":300,"o":"m 42 61 l 42 193 q 50 225 42 210 q 73 247 58 239 q 104 255 87 255 l 236 255 q 269 247 254 255 q 292 225 284 239 q 300 193 300 211 l 300 61 q 292 28 300 43 q 269 5 283 14 q 236 -3 254 -3 l 104 -3 q 73 5 87 -3 q 50 28 58 14 q 42 61 42 43 z "},"?":{"ha":729,"x_min":24,"x_max":688,"o":"m 210 378 q 209 394 210 386 q 208 411 209 403 q 207 455 207 444 q 225 557 207 515 q 289 634 243 599 q 420 698 336 668 q 472 748 459 721 q 488 806 486 775 l 488 920 q 474 976 488 950 q 436 1017 461 1001 q 378 1036 412 1033 q 370 1038 372 1036 l 358 1038 q 323 1033 339 1038 q 279 1008 298 1025 q 250 968 260 991 q 240 920 240 945 l 240 908 q 226 875 240 889 q 193 859 213 861 l 75 859 q 49 866 61 859 q 31 885 38 873 q 24 911 24 897 l 24 913 q 47 1036 24 977 q 111 1141 69 1095 q 208 1211 152 1187 q 326 1234 264 1234 l 378 1234 q 505 1215 449 1236 q 604 1149 561 1193 q 681 979 675 1083 q 688 854 688 924 q 661 671 688 739 q 594 576 635 603 q 505 538 553 550 q 472 529 483 533 q 454 516 461 525 q 443 493 446 508 q 436 422 439 475 q 433 371 436 393 q 422 334 431 349 q 394 318 413 318 l 271 316 q 241 324 255 316 q 219 347 227 333 q 210 378 211 361 m 215 61 l 215 191 q 223 223 215 209 q 246 245 232 238 q 276 253 260 253 l 406 253 q 437 245 423 253 q 459 223 451 238 q 467 191 467 209 l 467 61 q 459 28 467 43 q 436 5 450 14 q 406 -3 423 -3 l 276 -3 q 246 5 260 -3 q 224 28 232 14 q 215 61 215 43 z "},"¿":{"ha":729,"x_min":36,"x_max":700,"o":"m 120 66 q 43 236 49 132 q 36 361 36 292 q 49 497 36 440 q 83 589 62 554 q 130 641 104 624 q 219 677 167 664 q 251 687 240 682 q 270 700 263 692 q 281 724 278 709 q 288 793 285 742 q 291 846 288 824 q 302 882 293 867 q 330 898 311 898 l 453 899 q 483 891 469 899 q 505 868 497 883 q 514 837 513 854 q 515 821 514 829 q 516 804 515 813 q 517 760 517 772 q 499 658 517 701 q 435 582 481 616 q 304 517 388 547 q 252 467 265 494 q 238 411 238 441 q 236 378 236 396 l 236 295 q 249 241 236 266 q 288 199 263 216 q 345 179 313 182 q 354 177 352 179 l 366 177 q 401 182 385 177 q 445 207 426 190 q 474 247 464 224 q 484 295 484 270 l 484 307 q 498 341 484 327 q 531 356 511 355 l 649 356 q 675 349 663 356 q 693 330 686 342 q 700 304 700 318 l 700 302 q 677 179 700 238 q 613 75 655 120 q 516 5 572 28 q 398 -19 460 -19 l 345 -19 q 219 1 275 -20 q 120 66 163 22 m 257 1024 l 257 1155 q 265 1187 257 1172 q 288 1210 274 1202 q 318 1219 301 1219 l 448 1219 q 478 1210 464 1219 q 500 1187 492 1202 q 509 1155 509 1172 l 509 1024 q 501 993 509 1007 q 479 970 493 978 q 448 962 465 962 l 318 962 q 288 970 301 962 q 265 993 274 978 q 257 1024 257 1007 z "},"\"":{"ha":578,"x_min":69,"x_max":509,"o":"m 314 852 l 314 1142 q 323 1190 314 1174 q 347 1211 331 1206 q 391 1217 363 1217 l 432 1217 q 467 1216 456 1217 q 485 1211 477 1215 q 500 1196 493 1206 q 509 1142 509 1176 l 509 852 q 501 805 509 821 q 477 783 493 789 q 432 778 461 778 l 391 778 q 314 852 314 778 m 69 852 l 69 1142 q 78 1189 69 1173 q 102 1211 86 1205 q 144 1217 118 1217 l 188 1217 q 231 1211 215 1217 q 256 1190 247 1206 q 264 1142 264 1174 l 264 852 q 256 806 264 822 q 231 784 247 790 q 188 778 215 778 l 144 778 q 102 783 117 778 q 78 805 86 789 q 69 852 69 821 z "},"'":{"ha":309,"x_min":38,"x_max":274,"o":"m 38 890 q 44 905 38 898 l 80 967 q 81 969 81 968 q 81 973 81 971 q 79 981 81 977 q 73 986 77 984 q 48 1006 57 992 q 38 1040 38 1021 l 38 1159 q 46 1189 38 1176 q 66 1209 53 1202 q 94 1217 79 1217 l 217 1217 q 245 1209 232 1217 q 266 1188 259 1201 q 274 1159 274 1175 l 274 1040 q 258 998 274 1017 l 170 877 q 161 872 167 874 q 145 871 155 871 l 57 871 q 44 876 49 871 q 38 890 38 882 z "},";":{"ha":347,"x_min":43,"x_max":304,"o":"m 47 -102 q 54 -87 47 -94 l 92 -19 q 93 -16 93 -18 q 94 -12 94 -15 q 91 -3 94 -7 q 85 2 89 0 q 57 24 68 8 q 47 61 47 40 l 47 191 q 55 223 47 209 q 77 245 63 238 q 108 253 91 253 l 241 253 q 273 245 258 253 q 295 222 287 237 q 304 191 304 208 l 304 61 q 286 16 304 35 l 191 -116 q 181 -122 187 -120 q 163 -123 174 -123 l 68 -123 q 53 -117 59 -123 q 47 -102 47 -111 m 43 675 l 43 807 q 52 839 43 825 q 74 862 60 854 q 106 870 89 870 l 238 870 q 271 862 256 870 q 294 840 285 854 q 302 807 302 825 l 302 675 q 294 643 302 657 q 270 620 285 628 q 238 611 256 611 l 106 611 q 74 620 89 611 q 52 643 60 628 q 43 675 43 657 z "},"/":{"ha":521,"x_min":55,"x_max":482,"o":"m 55 33 q 56 42 55 39 l 257 1182 q 268 1203 259 1193 q 288 1220 276 1214 q 313 1226 300 1226 l 441 1226 q 470 1215 459 1226 q 482 1190 482 1205 q 481 1182 482 1186 l 280 42 q 270 18 279 29 q 249 1 262 8 q 224 -5 237 -5 l 95 -5 q 66 6 78 -5 q 55 33 55 17 z "},"_":{"ha":694,"x_min":16,"x_max":674,"o":"m 16 38 l 16 174 q 27 202 16 190 q 54 214 38 214 l 637 214 q 655 208 647 214 q 669 194 664 203 q 674 174 674 185 l 674 38 q 669 19 674 28 q 655 5 664 10 q 637 0 647 0 l 54 0 q 27 11 38 0 q 16 38 16 23 z "},"(":{"ha":521,"x_min":99,"x_max":760,"o":"m 102 -134 l 102 -128 l 99 -116 l 99 1321 l 99 1321 l 99 1372 q 122 1461 99 1420 q 183 1525 144 1501 q 267 1549 221 1549 l 736 1549 q 751 1540 744 1549 q 759 1521 759 1531 l 759 1384 q 749 1361 759 1370 q 726 1352 740 1352 l 345 1352 q 330 1348 336 1352 q 323 1335 324 1343 l 323 -89 q 329 -109 323 -101 q 345 -116 335 -116 l 724 -116 q 751 -126 741 -116 q 760 -153 760 -136 l 760 -259 q 747 -296 760 -282 q 714 -311 734 -311 l 269 -311 q 186 -287 224 -311 q 125 -222 147 -263 q 102 -134 102 -182 z "},")":{"ha":521,"x_min":-240,"x_max":422,"o":"m -240 -259 l -240 -153 q -230 -126 -240 -136 q -203 -116 -220 -116 l 175 -116 q 192 -109 186 -116 q 198 -89 198 -101 l 198 1335 q 190 1348 197 1343 q 175 1352 184 1352 l -205 1352 q -228 1361 -219 1352 q -238 1384 -238 1370 l -238 1521 q -231 1540 -238 1531 q -215 1549 -223 1549 l 253 1549 q 338 1525 300 1549 q 399 1461 377 1501 q 422 1372 422 1420 l 422 -116 l 418 -128 l 418 -134 q 396 -222 418 -182 q 335 -287 374 -263 q 252 -311 297 -311 l -193 -311 q -227 -296 -214 -311 q -240 -259 -240 -282 z "},"$":{"ha":835,"x_min":69,"x_max":766,"o":"m 302 -57 l 302 -5 q 227 29 263 7 q 161 82 191 51 q 93 189 117 128 q 69 318 69 250 l 69 319 q 77 348 69 335 q 98 370 85 362 q 125 378 110 378 l 241 378 q 245 378 244 378 q 248 377 247 378 l 257 377 l 259 375 q 285 356 274 370 q 295 326 295 342 l 295 309 q 306 259 295 282 q 336 218 317 235 q 380 193 355 200 q 417 189 405 189 l 439 189 q 497 208 471 192 q 537 252 523 225 q 552 309 552 278 l 556 396 q 536 471 554 441 q 483 519 519 501 q 431 536 458 531 q 363 544 403 541 q 354 545 360 544 q 335 546 344 545 q 321 547 325 547 q 108 712 157 563 q 85 872 85 775 q 86 906 85 890 q 87 931 87 924 q 89 957 89 943 q 107 1061 87 1011 q 167 1148 128 1111 q 302 1222 219 1200 l 302 1299 q 312 1336 302 1319 q 339 1363 322 1353 q 377 1373 356 1373 l 457 1373 q 494 1363 477 1373 q 521 1336 511 1353 q 531 1299 531 1319 l 531 1217 q 660 1141 604 1196 q 725 1039 702 1097 q 748 917 748 981 l 748 915 q 741 888 748 900 q 723 868 735 876 q 698 861 711 861 l 578 861 q 546 878 559 864 q 533 911 533 892 l 533 924 q 523 971 533 949 q 494 1009 513 993 q 450 1033 475 1025 q 413 1038 432 1038 l 408 1038 q 404 1037 407 1038 q 399 1036 401 1036 q 395 1036 397 1036 q 391 1035 392 1035 q 348 1024 368 1033 q 314 1000 328 1016 q 291 965 299 985 q 283 924 283 945 l 283 823 q 298 778 285 796 q 335 750 311 760 q 387 735 356 740 q 460 729 417 731 l 462 729 q 595 706 538 729 q 691 637 653 683 q 747 531 727 594 q 766 389 766 467 q 755 274 766 332 q 717 152 748 209 q 638 56 686 96 q 531 -2 590 16 l 531 -57 q 521 -95 531 -78 q 495 -122 511 -112 q 458 -132 478 -132 l 377 -132 q 340 -122 357 -132 q 312 -95 323 -112 q 302 -57 302 -78 z "},"€":{"ha":920,"x_min":40,"x_max":880,"o":"m 222 155 q 177 323 177 234 l 175 403 l 87 403 q 53 416 66 403 q 40 450 40 429 l 40 538 q 53 572 40 558 q 87 585 66 585 l 175 585 l 174 642 l 87 642 q 53 655 66 642 q 40 688 40 668 l 40 776 q 53 811 40 797 q 87 825 66 825 l 174 825 l 172 892 q 192 1006 172 951 q 249 1106 212 1061 q 335 1181 286 1151 q 497 1224 409 1224 l 556 1226 q 667 1206 614 1226 q 762 1151 720 1187 q 833 1064 805 1115 q 877 898 877 990 l 877 894 q 870 869 877 880 q 853 851 864 857 q 828 844 842 844 l 707 842 q 681 849 693 842 q 662 868 669 856 q 655 894 655 880 l 655 899 q 636 966 654 936 q 588 1014 618 997 q 521 1031 558 1031 l 514 1031 q 449 1013 480 1031 q 402 965 419 995 q 384 898 384 934 l 385 825 l 535 825 q 561 818 549 825 q 580 801 573 812 q 587 776 587 790 l 587 688 q 572 655 587 668 q 535 642 557 642 l 385 642 l 387 585 l 535 585 q 561 579 549 585 q 580 562 573 573 q 587 538 587 551 l 587 450 q 572 416 587 429 q 535 403 557 403 l 387 403 l 389 332 q 407 262 389 295 q 456 210 425 230 q 521 191 486 191 l 526 191 q 593 211 563 191 q 642 263 624 230 q 660 333 660 295 q 666 359 660 347 q 685 377 673 370 q 710 384 697 384 l 832 385 q 856 378 844 385 q 874 360 867 372 q 880 333 880 348 l 880 326 q 861 211 880 267 q 807 110 843 156 q 724 33 772 64 q 564 -14 651 -14 l 505 -14 q 394 6 448 -14 q 297 65 341 27 q 222 155 252 103 z "},"=":{"ha":521,"x_min":52,"x_max":467,"o":"m 52 726 l 52 835 q 70 875 52 860 q 115 891 87 891 l 399 891 q 431 883 416 891 q 453 863 445 875 q 462 835 462 850 l 462 726 q 453 698 462 711 q 431 678 445 685 q 399 670 416 670 l 115 670 q 83 678 98 670 q 60 698 69 685 q 52 726 52 711 m 57 424 l 57 533 q 75 573 57 558 q 120 589 92 589 l 405 589 q 436 581 422 589 q 459 560 450 573 q 467 533 467 548 l 467 424 q 459 396 467 409 q 436 376 450 383 q 405 368 422 368 l 120 368 q 88 376 103 368 q 66 396 74 383 q 57 424 57 409 z "},"%":{"ha":868,"x_min":54,"x_max":844,"o":"m 68 31 q 68 43 68 38 q 71 50 69 47 l 616 1198 q 642 1219 627 1219 q 648 1219 644 1219 l 800 1219 q 818 1209 810 1219 q 825 1186 825 1199 q 821 1170 825 1181 l 267 14 q 260 3 265 7 q 250 -2 255 -2 l 89 -2 q 74 8 80 -2 q 68 31 68 18 m 561 59 l 563 59 q 542 130 542 90 l 542 340 q 560 410 542 377 q 611 464 579 443 q 682 481 643 481 l 703 481 q 773 462 740 481 q 825 411 805 444 q 842 342 842 384 l 844 130 q 824 60 844 94 q 773 7 805 26 q 703 -12 734 -12 l 682 -12 q 612 7 645 -12 q 561 59 579 26 m 693 97 q 716 108 706 97 q 726 134 726 118 l 726 342 q 716 364 726 355 q 693 373 707 373 l 691 373 q 666 364 676 373 q 656 342 656 355 l 656 134 q 666 108 656 118 q 691 97 676 97 l 693 97 m 73 813 l 75 813 q 54 884 54 844 l 54 1094 q 72 1163 54 1130 q 123 1217 91 1196 q 194 1234 156 1234 l 215 1234 q 285 1216 252 1234 q 337 1165 317 1197 q 354 1095 354 1138 l 356 884 q 337 814 356 847 q 285 760 317 780 q 215 741 251 741 l 194 741 q 124 761 157 741 q 73 813 91 780 m 205 851 q 228 861 218 851 q 238 887 238 872 l 238 1095 q 228 1118 238 1109 q 205 1127 219 1127 l 203 1127 q 178 1118 188 1127 q 168 1095 168 1109 l 168 887 q 178 861 168 872 q 203 851 189 851 l 205 851 z "}}}
